The Lost Future (2011)(DivX)(Nl subs) TBS 

*****Vanaf 8 februari op video***** 

    


Van de makers van "Pillars of the Earth". 
Duitsland / Zuid-Afrika / Verenigde Staten
Avontuur / Science-Fiction
90 minuten

geregisseerd door Mikael Salomon
met Sean Bean, Annabelle Wallis en Sam Claflin


Een groep van overlevenden in een post-apocalyptische wereld, waar de oerwouden, bossen, ongerepte moerassen en de beschaving zijn uitgewist, strijdt om te overleven. Ze zijn vastberaden de genetisch gemanipuleerde beesten en mysterieuze ziektes te bestrijden in een poging het menselijke ras weer bovenaan de voedselketen te krijgen.

 
Storyline:


A group of post-apocalyptic survivors, struggle to survive in a world where jungles and forests and primeval wetlands and deserts have obliterated 
civilization. They staunchly face genetically mutating beasts and mysterious diseases in an attempt to re-establish the human race as masters of Earth. 



Info :

SOURCE..........: RETAIL DVD5
SIZE............: 895 MB
FORM............: AVI
VIDEO CODEC.....: XVID 
AUDIO...........: English
AUDIO CODE......: AC3
BITRATE.........: 448kbps
CHANNELS........: 5
SUBTITELS.......: NEDERLANDS INGEBAKKEN
Thanks..........: Inge2222

General

Format                           : DivX
Format/Info                      : Hack of AVI
File size                        : 895 MiB
Duration                         : 1h 27mn
Overall bit rate                 : 1 435 Kbps

Video
ID                               : 0
Format                           : MPEG-4 Visual
Format profile                   : Advanced Simple@L5
Format settings, BVOP            : Yes
Format settings, QPel            : No
Format settings, GMC             : No warppoints
Format settings, Matrix          : Default (H.263)
Muxing mode                      : Packed bitstream
Codec ID                         : DX50
Codec ID/Hint                    : DivX 5
Duration                         : 1h 27mn
Bit rate                         : 978 Kbps
Width                            : 720 pixels
Height                           : 416 pixels
Display aspect ratio             : 16:9
Frame rate                       : 25.000 fps
Color space                      : YUV
Chroma subsampling               : 4:2:0
Bit depth                        : 8 bits
Scan type                        : Progressive
Bits/(Pixel*Frame)               : 0.131
Stream size                      : 610 MiB (68%)
Title                            : Video 
Writing library                  : XviD 1.2.1 (UTC 2008-12-04)

Audio
ID                               : 1
Format                           : AC-3
Format/Info                      : Audio Coding 3
Mode extension                   : CM (complete main)
Codec ID                         : 2000
Duration                         : 1h 27mn
Bit rate mode                    : Constant
Bit rate                         : 448 Kbps
Channel(s)                       : 6 channels
Channel positions                : Front: L C R, Side: L R, LFE
Sampling rate                    : 48.0 KHz
Bit depth                        : 16 bits
Stream size                      : 280 MiB (31%)
Alignment                        : Split accross interleaves
Interleave, duration             : 40 ms (1.00 video frame)
Interleave, preload duration     : 500 ms
Title                            : Audio 



  
http://www.moviemeter.nl/film/72103 
http://www.imdb.com/title/tt1615091 